<svg width="100" height="101" viewBox="0 0 100 101" fill="none" xmlns="http://www.w3.org/2000/svg">
<path d="M50 100.509C77.6142 100.509 100 78.1148 100 50.4901C100 22.8654 77.6142 0.471191 50 0.471191C22.3858 0.471191 0 22.8654 0 50.4901C0 78.1148 22.3858 100.509 50 100.509Z" fill="url(#paint0_radial_1616_2038)"/>
<path d="M54.166 34.9088C54.166 42.9971 60.7136 49.5472 68.799 49.5472C76.8843 49.5472 83.4319 42.9971 83.4319 34.9088C83.4319 31.2864 82.0926 27.9617 79.9101 25.3813L74.7017 27.0189L59.424 31.8322L54.2156 33.4697C54.166 34.0156 54.166 34.4622 54.166 34.9088Z" fill="#211206"/>
<path d="M61.4077 36.795C61.4077 40.6158 64.5327 43.742 68.3522 43.742C72.1716 43.742 75.2966 40.6158 75.2966 36.795C75.2966 34.5124 74.2053 32.5275 72.5188 31.2373L61.7053 34.6612C61.5069 35.3063 61.4077 36.0506 61.4077 36.795Z" fill="white"/>
<path d="M49.9009 64.9795C57.887 64.9795 65.129 68.0064 68.4028 72.6213C69.1965 73.713 68.8989 75.2512 67.8076 75.9956C66.7163 76.7895 65.1786 76.4918 64.4346 75.4001C62.1032 72.0754 56.2501 69.7928 49.9009 69.7928C43.5517 69.7928 37.6985 72.0258 35.3671 75.4001C34.5735 76.4918 33.0854 76.7399 31.9941 75.9956C30.9029 75.2016 30.6548 73.713 31.3989 72.6213C34.6727 67.9568 41.9644 64.9795 49.9009 64.9795Z" fill="#211206"/>
<path d="M45.5852 34.9088C45.5852 42.9971 39.0376 49.5472 30.9523 49.5472C22.867 49.5472 16.3193 42.9971 16.3193 34.9088C16.3193 31.2864 17.6586 27.9617 19.8412 25.3813L25.0495 27.0189L40.3273 31.8322L45.5356 33.4697C45.5852 34.0156 45.5852 34.4622 45.5852 34.9088Z" fill="#211206"/>
<path d="M38.343 36.795C38.343 40.6158 35.218 43.742 31.3985 43.742C27.5791 43.742 24.4541 40.6158 24.4541 36.795C24.4541 34.5124 25.5454 32.5275 27.2319 31.2373L38.0454 34.6612C38.2438 35.3063 38.343 36.0506 38.343 36.795Z" fill="white"/>
<defs>
<radialGradient id="paint0_radial_1616_2038" cx="0" cy="0" r="1" gradientUnits="userSpaceOnUse" gradientTransform="translate(59.1269 38.2959) scale(65.5114 65.5361)">
<stop stop-color="#FFCF99"/>
<stop offset="0.5211" stop-color="#FF8E1B"/>
<stop offset="1" stop-color="#E64100"/>
</radialGradient>
</defs>
</svg>
