<svg width="100" height="115" viewBox="0 0 100 115" fill="none" xmlns="http://www.w3.org/2000/svg">
<path d="M50 114.248C77.6142 114.248 100 91.8535 100 64.2289C100 36.6042 77.6142 14.21 50 14.21C22.3858 14.21 0 36.6042 0 64.2289C0 91.8535 22.3858 114.248 50 114.248Z" fill="url(#paint0_radial_1616_1279)"/>
<path d="M26.488 86.0623C25.992 86.0623 25.496 85.9134 25.0991 85.6157C24.0079 84.8218 23.7598 83.3331 24.5039 82.2414C28.9681 75.9394 38.9384 71.8208 49.9007 71.8208C60.863 71.8208 70.8332 75.8898 75.2975 82.2414C76.0911 83.3331 75.7936 84.8714 74.7023 85.6157C73.611 86.4097 72.0733 86.1119 71.3292 85.0202C67.8074 80.0084 59.2261 76.6838 49.9007 76.6838C40.5753 76.6838 31.9939 80.058 28.4721 85.0202C28.0257 85.7149 27.2816 86.0623 26.488 86.0623Z" fill="#211206"/>
<path d="M17.1132 15.4015C16.1211 15.4015 15.129 15.3518 14.137 15.203C12.7977 15.0045 11.9048 13.7639 12.1032 12.4738C12.3017 11.134 13.5417 10.2408 14.8314 10.4393C18.1548 10.9355 21.5278 10.34 24.5536 8.75213C27.5794 7.16423 29.9604 4.73276 31.4485 1.70582C32.0437 0.514895 33.4822 0.0186698 34.7223 0.614133C35.9127 1.2096 36.4088 2.64863 35.8136 3.88918C33.8295 7.85894 30.7541 10.9851 26.8354 13.0692C23.76 14.6075 20.4862 15.4015 17.1132 15.4015Z" fill="url(#paint1_linear_1616_1279)"/>
<path d="M82.6884 15.4008C79.3154 15.4008 76.0416 14.6068 73.0158 13.0189C69.0971 10.9844 65.9722 7.80864 64.0376 3.83888C63.4424 2.64796 63.9384 1.1593 65.1289 0.563841C66.3193 -0.0316216 67.8074 0.464596 68.4027 1.65552C69.8908 4.68246 72.3213 7.11393 75.2975 8.70183C78.3233 10.2897 81.6467 10.8852 85.0197 10.389C86.359 10.1905 87.5991 11.1333 87.7479 12.4235C87.9463 13.7633 87.0039 15.0038 85.7142 15.1527C84.6725 15.3512 83.6805 15.4008 82.6884 15.4008Z" fill="url(#paint2_linear_1616_1279)"/>
<path d="M84.3608 50.6126C86.3438 42.2112 81.1433 33.7924 72.7452 31.8086C64.347 29.8248 55.9313 35.0273 53.9483 43.4286C51.9652 51.83 57.1657 60.2488 65.5639 62.2326C73.9621 64.2164 82.3777 59.0139 84.3608 50.6126Z" fill="white"/>
<path d="M66.0718 55.843C70.9207 55.843 74.8515 51.9107 74.8515 47.0599C74.8515 42.2092 70.9207 38.2769 66.0718 38.2769C61.2229 38.2769 57.292 42.2092 57.292 47.0599C57.292 51.9107 61.2229 55.843 66.0718 55.843Z" fill="#211206"/>
<path d="M36.7066 61.3886C44.6793 58.0849 48.4653 48.9411 45.1628 40.9653C41.8603 32.9895 32.72 29.2021 24.7472 32.5058C16.7745 35.8096 12.9885 44.9534 16.291 52.9292C19.5935 60.9049 28.7338 64.6924 36.7066 61.3886Z" fill="white"/>
<path d="M33.7302 55.843C38.5791 55.843 42.51 51.9107 42.51 47.0599C42.51 42.2092 38.5791 38.2769 33.7302 38.2769C28.8812 38.2769 24.9504 42.2092 24.9504 47.0599C24.9504 51.9107 28.8812 55.843 33.7302 55.843Z" fill="#211206"/>
<defs>
<radialGradient id="paint0_radial_1616_1279" cx="0" cy="0" r="1" gradientUnits="userSpaceOnUse" gradientTransform="translate(59.1172 52.0346) scale(65.5114 65.5361)">
<stop stop-color="#FFEF99"/>
<stop offset="0.5211" stop-color="#FFD71B"/>
<stop offset="1" stop-color="#E69900"/>
</radialGradient>
<linearGradient id="paint1_linear_1616_1279" x1="36.4395" y1="-3.51683" x2="11.4485" y2="1.98406" gradientUnits="userSpaceOnUse">
<stop stop-color="#D22222"/>
<stop offset="1" stop-color="#820505"/>
</linearGradient>
<linearGradient id="paint2_linear_1616_1279" x1="88.148" y1="-3.57992" x2="63.1506" y2="1.90403" gradientUnits="userSpaceOnUse">
<stop stop-color="#D22222"/>
<stop offset="1" stop-color="#820505"/>
</linearGradient>
</defs>
</svg>
