<svg width="100" height="101" viewBox="0 0 100 101" fill="none" xmlns="http://www.w3.org/2000/svg">
<path d="M50.0001 100.622C77.6143 100.622 100 78.2276 100 50.6029C100 22.9782 77.6143 0.583984 50.0001 0.583984C22.3858 0.583984 0 22.9782 0 50.6029C0 78.2276 22.3858 100.622 50.0001 100.622Z" fill="url(#paint0_radial_1616_935)"/>
<path d="M84.4803 41.4912C86.7835 33.1718 81.909 24.5599 73.5928 22.2558C65.2766 19.9517 56.6679 24.8281 54.3647 33.1474C52.0615 41.4668 56.936 50.0788 65.2522 52.3828C73.5684 54.6869 82.1771 49.8106 84.4803 41.4912Z" fill="white"/>
<path d="M66.8157 43.1083C70.925 43.1083 74.2562 39.7758 74.2562 35.665C74.2562 31.5542 70.925 28.2217 66.8157 28.2217C62.7065 28.2217 59.3752 31.5542 59.3752 35.665C59.3752 39.7758 62.7065 43.1083 66.8157 43.1083Z" fill="#211206"/>
<path d="M45.5554 43.2676C48.8579 35.2918 45.0719 26.148 37.0992 22.8443C29.1264 19.5405 19.986 23.3279 16.6835 31.3037C13.3811 39.2795 17.1671 48.4233 25.1398 51.7271C33.1126 55.0308 42.253 51.2434 45.5554 43.2676Z" fill="white"/>
<path d="M28.3736 43.1083C32.4829 43.1083 35.8141 39.7758 35.8141 35.665C35.8141 31.5542 32.4829 28.2217 28.3736 28.2217C24.2643 28.2217 20.9331 31.5542 20.9331 35.665C20.9331 39.7758 24.2643 43.1083 28.3736 43.1083Z" fill="#211206"/>
<path d="M69.2959 71.4933H31.2502C29.9109 71.4933 28.8196 70.4017 28.8196 69.0619C28.8196 67.7221 29.9109 66.6304 31.2502 66.6304H69.2959C70.6351 66.6304 71.7264 67.7221 71.7264 69.0619C71.7264 70.4017 70.6351 71.4933 69.2959 71.4933Z" fill="#211206"/>
<defs>
<radialGradient id="paint0_radial_1616_935" cx="0" cy="0" r="1" gradientUnits="userSpaceOnUse" gradientTransform="translate(59.143 38.4539) scale(65.5114 65.5362)">
<stop stop-color="#FFEF99"/>
<stop offset="0.5211" stop-color="#FFD71B"/>
<stop offset="1" stop-color="#E69900"/>
</radialGradient>
</defs>
</svg>
