<svg width="150" height="41" viewBox="0 0 150 41" fill="none" xmlns="http://www.w3.org/2000/svg">
<path d="M11.9265 32.4536C11.5338 32.4536 11.1903 32.3187 10.8958 32.049C10.6259 31.7546 10.4909 31.4113 10.4909 31.0189V21.8215L0.478623 5.96534C0.233224 5.59745 0.135066 5.24181 0.184145 4.89845C0.257764 4.55509 0.417273 4.27303 0.662672 4.0523C0.908072 3.83156 1.21482 3.72119 1.58292 3.72119C1.8774 3.72119 2.11052 3.78251 2.2823 3.90514C2.47862 4.02776 2.6504 4.19945 2.79764 4.42019L12.7363 20.4235H11.1903L21.0921 4.49377C21.2639 4.22398 21.448 4.02776 21.6443 3.90514C21.8651 3.78251 22.1228 3.72119 22.4173 3.72119C22.7608 3.72119 23.043 3.84382 23.2639 4.08908C23.5093 4.30982 23.6442 4.59188 23.6688 4.93524C23.7178 5.2786 23.632 5.62198 23.4111 5.96534L13.3621 21.8215V31.0189C13.3621 31.4113 13.2148 31.7546 12.9203 32.049C12.6504 32.3187 12.3191 32.4536 11.9265 32.4536ZM30.5459 32.6376C28.6564 32.6376 26.9632 32.1961 25.4662 31.3132C23.9692 30.4057 22.7791 29.1794 21.8956 27.6342C21.0368 26.0891 20.6073 24.3478 20.6073 22.4102C20.6073 20.4481 21.049 18.6944 21.9324 17.1493C22.8405 15.6041 24.0674 14.3901 25.6134 13.5071C27.1594 12.5997 28.9017 12.1459 30.8404 12.1459C32.7791 12.1459 34.5092 12.5997 36.0306 13.5071C37.5766 14.3901 38.7913 15.6041 39.6748 17.1493C40.5828 18.6944 41.049 20.4481 41.0735 22.4102L39.9324 23.2931C39.9324 25.059 39.5153 26.6531 38.6809 28.0757C37.8711 29.4737 36.7546 30.5896 35.3312 31.4235C33.9324 32.2329 32.3374 32.6376 30.5459 32.6376ZM30.8404 30.0623C32.2638 30.0623 33.5275 29.7312 34.6318 29.069C35.7607 28.4068 36.6441 27.4993 37.2821 26.3466C37.9447 25.1694 38.276 23.8572 38.276 22.4102C38.276 20.9386 37.9447 19.6264 37.2821 18.4737C36.6441 17.321 35.7607 16.4135 34.6318 15.7513C33.5275 15.0645 32.2638 14.7212 30.8404 14.7212C29.4416 14.7212 28.1779 15.0645 27.049 15.7513C25.9201 16.4135 25.0245 17.321 24.3619 18.4737C23.6993 19.6264 23.368 20.9386 23.368 22.4102C23.368 23.8572 23.6993 25.1694 24.3619 26.3466C25.0245 27.4993 25.9201 28.4068 27.049 29.069C28.1779 29.7312 29.4416 30.0623 30.8404 30.0623ZM39.638 32.4536C39.2208 32.4536 38.8772 32.331 38.6073 32.0857C38.3374 31.816 38.2024 31.4725 38.2024 31.0556V24.7647L38.9018 21.8583L41.0735 22.4102V31.0556C41.0735 31.4725 40.9385 31.816 40.6686 32.0857C40.3987 32.331 40.0551 32.4536 39.638 32.4536ZM45.9235 20.0556C45.9971 18.5351 46.3898 17.1739 47.1014 15.972C47.8376 14.7702 48.7824 13.826 49.9358 13.1393C51.1137 12.4525 52.4142 12.1092 53.8376 12.1092C54.9665 12.1092 55.8376 12.2686 56.4511 12.5874C57.0646 12.9063 57.2977 13.3722 57.1505 13.9854C57.0523 14.3533 56.8806 14.5986 56.6351 14.7212C56.4143 14.8438 56.132 14.8929 55.7885 14.8683C55.4695 14.8438 55.1014 14.8193 54.6842 14.7948C53.31 14.6722 52.083 14.8193 51.0032 15.2362C49.948 15.6287 49.1014 16.2418 48.4634 17.0757C47.8498 17.9096 47.5431 18.903 47.5431 20.0556H45.9235ZM46.1444 32.4536C45.7026 32.4536 45.3591 32.331 45.1137 32.0857C44.8682 31.8404 44.7456 31.4971 44.7456 31.0556V13.7279C44.7456 13.2864 44.8682 12.943 45.1137 12.6978C45.3591 12.4525 45.7026 12.3299 46.1444 12.3299C46.5861 12.3299 46.9296 12.4525 47.175 12.6978C47.4205 12.943 47.5431 13.2864 47.5431 13.7279V31.0556C47.5431 31.4971 47.4205 31.8404 47.175 32.0857C46.9296 32.331 46.5861 32.4536 46.1444 32.4536ZM67.456 32.6376C65.5175 32.6376 63.7751 32.1961 62.2291 31.3132C60.683 30.4057 59.4561 29.1794 58.5481 27.6342C57.6646 26.0891 57.2229 24.3354 57.2229 22.3734C57.2229 20.4358 57.6524 18.6944 58.5113 17.1493C59.3947 15.6041 60.585 14.3901 62.0818 13.5071C63.5788 12.5997 65.272 12.1459 67.1616 12.1459C68.8058 12.1459 70.2904 12.5016 71.6156 13.2128C72.9407 13.8996 74.0082 14.8193 74.818 15.972V5.15597C74.818 4.7145 74.953 4.37114 75.2229 4.12587C75.493 3.85609 75.8365 3.72119 76.2536 3.72119C76.6709 3.72119 77.0144 3.85609 77.2843 4.12587C77.5543 4.37114 77.6892 4.7145 77.6892 5.15597V22.5205C77.6401 24.4336 77.1616 26.1627 76.2536 27.7078C75.3702 29.2284 74.1554 30.4302 72.6094 31.3132C71.088 32.1961 69.3702 32.6376 67.456 32.6376ZM67.456 30.0623C68.8794 30.0623 70.1432 29.7312 71.2475 29.069C72.3763 28.3822 73.2598 27.4625 73.8978 26.3098C74.5603 25.1571 74.8916 23.8449 74.8916 22.3734C74.8916 20.9264 74.5603 19.6264 73.8978 18.4737C73.2598 17.2964 72.3763 16.3767 71.2475 15.7145C70.1432 15.0523 68.8794 14.7212 67.456 14.7212C66.0573 14.7212 64.7935 15.0523 63.6646 15.7145C62.5359 16.3767 61.6401 17.2964 60.9775 18.4737C60.3149 19.6264 59.9837 20.9264 59.9837 22.3734C59.9837 23.8449 60.3149 25.1571 60.9775 26.3098C61.6401 27.4625 62.5359 28.3822 63.6646 29.069C64.7935 29.7312 66.0573 30.0623 67.456 30.0623ZM89.5063 32.6376C88.0585 32.6376 86.6229 32.3923 85.1996 31.9018C83.7762 31.4113 82.6229 30.6755 81.7394 29.6944C81.4695 29.4001 81.3591 29.069 81.4082 28.7011C81.4572 28.3332 81.6412 28.0143 81.9603 27.7446C82.3038 27.4993 82.6597 27.4013 83.0278 27.4503C83.3959 27.4993 83.7026 27.6588 83.948 27.9285C84.537 28.6153 85.31 29.1426 86.2671 29.5105C87.2487 29.8784 88.3284 30.0623 89.5063 30.0623C91.3222 30.0623 92.6351 29.7558 93.445 29.1426C94.2548 28.505 94.6719 27.7446 94.6965 26.8617C94.6965 25.9787 94.2794 25.2551 93.445 24.6911C92.6106 24.1025 91.2364 23.6488 89.3223 23.3299C86.8438 22.9374 85.0277 22.2508 83.8744 21.2697C82.7211 20.2886 82.1443 19.1237 82.1443 17.7747C82.1443 16.5239 82.4756 15.4815 83.1382 14.6476C83.8008 13.8137 84.6842 13.1883 85.7885 12.7714C86.8928 12.3544 88.1075 12.1459 89.4327 12.1459C91.0769 12.1459 92.4879 12.428 93.6658 12.9921C94.8683 13.5562 95.8376 14.3165 96.5738 15.273C96.8192 15.5919 96.9173 15.923 96.8683 16.2663C96.8192 16.6097 96.6228 16.8918 96.2793 17.1125C95.9848 17.2842 95.6413 17.3455 95.2486 17.2964C94.8805 17.2229 94.5615 17.0389 94.2916 16.7446C93.6781 16.0334 92.9664 15.5183 92.1566 15.1995C91.3468 14.8561 90.4143 14.6844 89.3591 14.6844C88.0093 14.6844 86.9296 14.9665 86.1198 15.5306C85.31 16.0702 84.9051 16.7568 84.9051 17.5908C84.9051 18.1548 85.0523 18.6454 85.3468 19.0623C85.6659 19.4792 86.1934 19.8471 86.9296 20.166C87.6904 20.4849 88.7455 20.7546 90.0953 20.9754C91.9358 21.2697 93.3836 21.7112 94.4388 22.2998C95.5185 22.8638 96.2793 23.5384 96.721 24.3232C97.1873 25.0836 97.4204 25.9174 97.4204 26.8249C97.4204 27.9776 97.0769 28.9954 96.3897 29.8784C95.7272 30.7368 94.7947 31.4113 93.5922 31.9018C92.4143 32.3923 91.0523 32.6376 89.5063 32.6376ZM108.355 32.4536C107.055 32.4536 105.889 32.1471 104.858 31.5339C103.852 30.9207 103.055 30.0869 102.466 29.0322C101.877 27.9531 101.582 26.7267 101.582 25.3533V7.36333C101.582 6.94639 101.705 6.60302 101.95 6.33323C102.22 6.06345 102.564 5.92855 102.981 5.92855C103.398 5.92855 103.742 6.06345 104.012 6.33323C104.282 6.60302 104.417 6.94639 104.417 7.36333V25.3533C104.417 26.6041 104.785 27.6342 105.521 28.4436C106.257 29.2284 107.202 29.6209 108.355 29.6209H109.349C109.742 29.6209 110.061 29.7558 110.306 30.0255C110.552 30.2953 110.674 30.6387 110.674 31.0556C110.674 31.4725 110.527 31.816 110.233 32.0857C109.938 32.331 109.57 32.4536 109.128 32.4536H108.355ZM99.1897 15.5306C98.8216 15.5306 98.5147 15.4202 98.2694 15.1995C98.024 14.9541 97.9013 14.6598 97.9013 14.3165C97.9013 13.9486 98.024 13.6543 98.2694 13.4336C98.5147 13.1883 98.8216 13.0657 99.1897 13.0657H108.576C108.944 13.0657 109.251 13.1883 109.496 13.4336C109.742 13.6543 109.865 13.9486 109.865 14.3165C109.865 14.6598 109.742 14.9541 109.496 15.1995C109.251 15.4202 108.944 15.5306 108.576 15.5306H99.1897ZM115.472 32.4536C115.03 32.4536 114.675 32.331 114.405 32.0857C114.159 31.816 114.037 31.4603 114.037 31.0189V13.7647C114.037 13.3232 114.159 12.9798 114.405 12.7346C114.675 12.4648 115.03 12.3299 115.472 12.3299C115.889 12.3299 116.221 12.4648 116.466 12.7346C116.736 12.9798 116.871 13.3232 116.871 13.7647V31.0189C116.871 31.4603 116.736 31.816 116.466 32.0857C116.221 32.331 115.889 32.4536 115.472 32.4536ZM115.435 8.5038C114.895 8.5038 114.429 8.3076 114.037 7.91517C113.644 7.52275 113.448 7.04449 113.448 6.48039C113.448 5.86723 113.644 5.38897 114.037 5.04561C114.454 4.67771 114.932 4.49377 115.472 4.49377C115.988 4.49377 116.442 4.67771 116.834 5.04561C117.251 5.38897 117.46 5.86723 117.46 6.48039C117.46 7.04449 117.264 7.52275 116.871 7.91517C116.478 8.3076 116 8.5038 115.435 8.5038ZM136.309 32.4536C136.015 32.4536 135.769 32.4046 135.573 32.3065C135.401 32.2083 135.217 32.0367 135.021 31.7914L128.652 23.6978L127.548 22.7413L121.143 14.6108C120.873 14.2919 120.738 13.9608 120.738 13.6175C120.763 13.2742 120.885 12.9798 121.106 12.7346C121.327 12.4648 121.646 12.3299 122.063 12.3299C122.481 12.3299 122.836 12.477 123.131 12.7714L129.315 20.6811L130.309 21.4904L137.156 30.2463C137.474 30.6387 137.61 31.0066 137.561 31.35C137.511 31.6933 137.352 31.9632 137.082 32.1593C136.837 32.3555 136.579 32.4536 136.309 32.4536ZM121.732 32.4536C121.34 32.4536 121.021 32.331 120.775 32.0857C120.554 31.8404 120.432 31.5461 120.407 31.2028C120.407 30.8595 120.542 30.5284 120.812 30.2095L127.585 21.7479L129.168 23.8449L122.726 32.0122C122.505 32.3065 122.174 32.4536 121.732 32.4536ZM130.346 22.8884L128.542 21.049L134.911 12.9921C135.082 12.7468 135.266 12.5752 135.463 12.477C135.684 12.3789 135.905 12.3299 136.125 12.3299C136.542 12.3299 136.862 12.4648 137.082 12.7346C137.303 12.9798 137.401 13.2864 137.377 13.6543C137.377 13.9976 137.253 14.3287 137.009 14.6476L130.346 22.8884Z" fill="#820505"/>
<path d="M139.614 12.3506H128.834V33.5044H139.614V12.3506Z" fill="white"/>
<path d="M128.196 20.3658C127.096 21.1642 126.853 22.7022 127.651 23.801L133.913 32.4138C134.126 32.7065 134.536 32.7715 134.828 32.5587L137.749 30.438C138.042 30.2252 138.107 29.8154 137.894 29.5227L131.633 20.9099C130.834 19.8111 129.295 19.5675 128.196 20.3658Z" fill="#FFCB39"/>
<path d="M135.881 27.3275L136.145 27.1328L136.534 27.6618L136.27 27.8565L135.881 27.3275ZM134.682 29.0252C134.536 29.1328 134.331 29.1016 134.223 28.9556C134.115 28.8095 134.147 28.6039 134.293 28.4963L134.682 29.0252ZM136.27 27.8565L134.682 29.0252L134.293 28.4963L135.881 27.3275L136.27 27.8565Z" fill="#820505"/>
<path d="M134.829 25.8822L135.093 25.6875L135.482 26.2165L135.218 26.4112L134.829 25.8822ZM134.265 27.1124C134.119 27.22 133.914 27.1888 133.806 27.0428C133.698 26.8967 133.73 26.6911 133.876 26.5835L134.265 27.1124ZM135.218 26.4112L134.265 27.1124L133.876 26.5835L134.829 25.8822L135.218 26.4112Z" fill="#820505"/>
<path d="M133.777 24.4369L134.042 24.2422L134.431 24.7712L134.167 24.9659L133.777 24.4369ZM132.579 26.1346C132.433 26.2422 132.228 26.2109 132.12 26.065C132.012 25.9189 132.043 25.7132 132.189 25.6056L132.579 26.1346ZM134.167 24.9659L132.579 26.1346L132.189 25.6056L133.777 24.4369L134.167 24.9659Z" fill="#820505"/>
<path d="M128.196 24.3331C127.096 23.5346 126.853 21.9967 127.651 20.8979L133.913 12.2848C134.126 11.992 134.536 11.9271 134.829 12.1398L137.749 14.2606C138.042 14.4733 138.107 14.8831 137.894 15.176L131.633 23.789C130.834 24.8878 129.295 25.1314 128.196 24.3331Z" fill="#FFDF41"/>
<path d="M136.012 17.2002L136.277 17.395L136.666 16.8661L136.401 16.6712L136.012 17.2002ZM134.813 15.5025C134.667 15.3949 134.462 15.4262 134.355 15.5721C134.247 15.7182 134.278 15.9239 134.424 16.0315L134.813 15.5025ZM136.401 16.6712L134.813 15.5025L134.424 16.0315L136.012 17.2002L136.401 16.6712Z" fill="#820505"/>
<path d="M134.961 18.6453L135.225 18.8402L135.614 18.3112L135.35 18.1163L134.961 18.6453ZM134.397 17.4151C134.251 17.3075 134.046 17.3388 133.938 17.4847C133.83 17.6308 133.862 17.8365 134.008 17.9441L134.397 17.4151ZM135.35 18.1163L134.397 17.4151L134.008 17.9441L134.961 18.6453L135.35 18.1163Z" fill="#820505"/>
<path d="M133.909 20.0908L134.173 20.2857L134.562 19.7567L134.298 19.5618L133.909 20.0908ZM132.71 18.3931C132.564 18.2855 132.359 18.3168 132.251 18.4628C132.143 18.6089 132.175 18.8145 132.321 18.9221L132.71 18.3931ZM134.298 19.5618L132.71 18.3931L132.321 18.9221L133.909 20.0908L134.298 19.5618Z" fill="#820505"/>
<path opacity="0.8" d="M129.623 23.1245C130.059 23.1245 130.412 22.7716 130.412 22.3362C130.412 21.9008 130.059 21.5479 129.623 21.5479C129.188 21.5479 128.834 21.9008 128.834 22.3362C128.834 22.7716 129.188 23.1245 129.623 23.1245Z" fill="#820505"/>
<path d="M140.069 12.3509V6.86399H141.308V12.3509H140.069ZM138.326 7.86519V6.78516H143.051V7.86519H138.326ZM143.742 12.3509V6.78516H144.626L146.818 10.1987H146.369L148.554 6.78516H149.445V12.3509H148.207V8.87426L148.428 8.92945L147 11.1526H146.18L144.76 8.92945L144.973 8.87426V12.3509H143.742Z" fill="#820505"/>
</svg>
