<svg width="140" height="113" viewBox="0 0 140 113" fill="none" xmlns="http://www.w3.org/2000/svg">
<path d="M70.0723 97.8487C96.8179 97.8487 118.499 76.1589 118.499 49.4031C118.499 22.6473 96.8179 0.95752 70.0723 0.95752C43.3267 0.95752 21.645 22.6473 21.645 49.4031C21.645 76.1589 43.3267 97.8487 70.0723 97.8487Z" fill="url(#paint0_radial_1616_1455)"/>
<path d="M58.9261 76.9428C58.5898 76.9428 58.3016 76.8948 57.9653 76.7506C56.7642 76.2219 56.2357 74.8281 56.7642 73.6747C59.4066 67.619 67.0454 62.4764 76.2216 60.6021C85.3978 58.7277 94.4299 60.4579 99.2342 65.0237C100.195 65.9368 100.243 67.4267 99.3303 68.3399C98.4175 69.3011 96.9282 69.3492 96.0154 68.436C92.3161 64.9756 84.7732 63.678 77.1824 65.2159C69.5917 66.7539 63.1059 70.9352 61.0881 75.5491C60.7037 76.4142 59.839 76.9428 58.9261 76.9428Z" fill="#211206"/>
<path d="M74.6838 34.0234C75.1643 41.8574 81.6981 48.7782 89.6252 48.7782C97.5523 48.7782 104.086 41.8093 104.567 34.0234H74.6838Z" fill="white"/>
<path d="M87.4152 34.6002C87.4152 39.4543 84.0042 43.4434 79.4402 44.4046C76.7017 41.6651 74.9241 37.9644 74.6838 34.0234H87.4152C87.4152 34.2157 87.4152 34.3599 87.4152 34.6002Z" fill="#211206"/>
<path d="M65.3155 34.0234C64.8351 41.8574 58.3013 48.7782 50.3742 48.7782C42.4471 48.7782 35.9133 41.8093 35.4329 34.0234H65.3155Z" fill="white"/>
<path d="M52.5842 34.6002C52.5842 39.4543 55.9953 43.4434 60.5594 44.4046C63.2978 41.6651 65.0754 37.9644 65.3156 34.0234H52.5842C52.5842 34.2157 52.5842 34.3599 52.5842 34.6002Z" fill="#211206"/>
<path d="M48.3324 70.1869C45.3538 69.8505 42.231 75.1372 40.2132 79.4627L36.7541 73.9838L27.6259 59.4212C26.4249 57.4988 23.8305 56.874 21.9088 58.1236C19.9871 59.3732 19.3626 61.9204 20.6117 63.8429L16.9604 58.0755C15.7593 56.1531 13.165 55.5283 11.2433 56.7779C9.32159 57.9794 8.69703 60.5747 9.94615 62.4972L11.964 65.7172C10.7629 63.7948 8.16855 63.17 6.24684 64.4196C4.32512 65.6211 3.70057 68.2164 4.94969 70.1389L7.68812 74.5124C6.48705 72.59 3.89274 71.9652 1.97102 73.2148C0.0493034 74.4163 -0.575246 77.0116 0.67387 78.934L8.64898 91.6702L15.7113 102.917L16.5761 104.31C21.4284 112.048 31.7096 114.403 39.4445 109.549C44.1047 106.617 46.7951 101.763 47.1794 96.6686C47.1794 96.6686 48.9089 82.3464 51.167 78.3093C53.425 74.2721 53.3289 70.7637 48.3324 70.1869Z" fill="url(#paint1_linear_1616_1455)"/>
<path d="M7.11181 63.9863C5.81465 65.332 5.52639 67.4467 6.58334 69.0808L17.6813 86.7673L17.9695 90.9005L4.90183 70.1382C3.70076 68.2157 4.27728 65.6204 6.199 64.4189C6.48726 64.2266 6.82355 64.0825 7.11181 63.9863Z" fill="#D3B589"/>
<path d="M40.2618 108.972C40.0216 109.165 39.7334 109.357 39.4451 109.501C31.7102 114.355 21.429 112.048 16.5767 104.262L0.626448 78.8862C-0.574625 76.9637 0.00188103 74.3685 1.9236 73.1669C2.21185 72.9747 2.50012 72.8305 2.83642 72.7344C1.53927 74.0801 1.25101 76.1948 2.30795 77.8289L18.2582 103.205C22.9664 110.751 32.623 113.154 40.2618 108.972Z" fill="#D3B589"/>
<path d="M12.1086 56.3452C10.8115 57.6909 10.5232 59.8056 11.5802 61.4397L24.6959 82.3463L24.9841 86.4795L9.89866 62.497C8.69759 60.5746 9.27411 57.9793 11.1958 56.7777C11.4841 56.5855 11.8204 56.4413 12.1086 56.3452Z" fill="#D3B589"/>
<path d="M22.7742 57.6909C21.4771 59.0366 21.1888 61.1513 22.2457 62.7854L31.7582 77.9246L32.0465 82.0579L20.6123 63.8427C19.4112 61.9203 19.9877 59.325 21.9094 58.1235C22.1497 57.9312 22.4379 57.8351 22.7742 57.6909Z" fill="#D3B589"/>
<path d="M91.6676 68.6259C94.6462 68.2895 97.769 73.5762 99.7868 77.9017L103.246 72.4227L112.374 57.8602C113.575 55.9378 116.169 55.313 118.091 56.5626C120.013 57.8122 120.637 60.3594 119.388 62.2818L123.04 56.5145C124.241 54.592 126.835 53.9672 128.757 55.2168C130.678 56.4184 131.303 59.0137 130.054 60.9361L128.036 64.1562C129.237 62.2338 131.831 61.609 133.753 62.8586C135.675 64.0601 136.299 66.6554 135.05 68.5778L132.312 72.9514C133.513 71.0289 136.107 70.4041 138.029 71.6537C139.951 72.8553 140.575 75.4506 139.326 77.373L131.351 90.1092L124.289 101.355L123.424 102.749C118.572 110.487 108.29 112.842 100.556 107.988C95.8953 105.056 93.2049 100.202 92.8206 95.1075C92.8206 95.1075 91.0911 80.7854 88.833 76.7482C86.575 72.7111 86.6711 69.2026 91.6676 68.6259Z" fill="url(#paint2_linear_1616_1455)"/>
<path d="M132.888 62.4253C134.185 63.771 134.474 65.8857 133.417 67.5198L122.319 85.2063L122.03 89.3395L135.098 68.5771C136.299 66.6547 135.723 64.0594 133.801 62.8579C133.513 62.6656 133.176 62.5214 132.888 62.4253Z" fill="#D3B589"/>
<path d="M99.7384 107.411C99.9786 107.604 100.267 107.796 100.555 107.94C108.29 112.794 118.571 110.487 123.424 102.701L139.374 77.3252C140.575 75.4027 139.998 72.8074 138.077 71.6059C137.788 71.4137 137.5 71.2695 137.164 71.1733C138.461 72.5191 138.749 74.6338 137.692 76.2678L121.742 101.644C117.034 109.19 107.377 111.593 99.7384 107.411Z" fill="#D3B589"/>
<path d="M127.892 54.7842C129.189 56.1299 129.477 58.2446 128.42 59.8786L115.304 80.7852L115.016 84.9185L130.102 60.936C131.303 59.0135 130.726 56.4182 128.804 55.2167C128.516 55.0245 128.18 54.8803 127.892 54.7842Z" fill="#D3B589"/>
<path d="M117.226 56.1304C118.523 57.4761 118.811 59.5908 117.754 61.2248L108.242 76.3641L107.954 80.4973L119.388 62.2822C120.589 60.3597 120.012 57.7645 118.091 56.5629C117.85 56.3707 117.562 56.2746 117.226 56.1304Z" fill="#D3B589"/>
<defs>
<radialGradient id="paint0_radial_1616_1455" cx="0" cy="0" r="1" gradientUnits="userSpaceOnUse" gradientTransform="translate(78.9262 37.5924) scale(62.5114 62.5351)">
<stop stop-color="#FFEF99"/>
<stop offset="0.5211" stop-color="#FFD71B"/>
<stop offset="1" stop-color="#E69900"/>
</radialGradient>
<linearGradient id="paint1_linear_1616_1455" x1="15.1801" y1="55.9148" x2="44.7497" y2="107.642" gradientUnits="userSpaceOnUse">
<stop stop-color="#FFF1AA"/>
<stop offset="0.3819" stop-color="#FCD48E"/>
<stop offset="0.7596" stop-color="#FABD78"/>
<stop offset="1" stop-color="#F9B570"/>
</linearGradient>
<linearGradient id="paint2_linear_1616_1455" x1="124.82" y1="54.3538" x2="95.2503" y2="106.081" gradientUnits="userSpaceOnUse">
<stop stop-color="#FFF1AA"/>
<stop offset="0.3819" stop-color="#FCD48E"/>
<stop offset="0.7596" stop-color="#FABD78"/>
<stop offset="1" stop-color="#F9B570"/>
</linearGradient>
</defs>
</svg>
