<svg width="100" height="101" viewBox="0 0 100 101" fill="none" xmlns="http://www.w3.org/2000/svg">
<path d="M50.0001 100.969C77.6143 100.969 100 78.5748 100 50.9501C100 23.3254 77.6143 0.931152 50.0001 0.931152C22.3858 0.931152 0 23.3254 0 50.9501C0 78.5748 22.3858 100.969 50.0001 100.969Z" fill="url(#paint0_radial_1616_2287)"/>
<path d="M50.2981 60.9741C36.1115 60.9741 16.5679 61.8177 16.5679 61.8177C16.5679 93.4269 38.7405 93.4269 50.2981 93.4269C61.8556 93.4269 84.0282 93.4269 84.0282 61.8177C84.0282 61.8177 64.4846 60.9741 50.2981 60.9741Z" fill="#211206"/>
<path d="M80.3085 61.6688C80.0604 66.0356 76.7867 69.658 72.4216 70.3527C67.2629 71.1466 59.7727 71.9406 50.2985 71.9406C40.8243 71.9406 33.3343 71.1466 28.1756 70.3527C23.8105 69.658 20.5366 66.0356 20.2886 61.6688C26.6378 61.4207 39.9314 60.9741 50.2985 60.9741C60.6656 60.9741 73.9592 61.4207 80.3085 61.6688Z" fill="white"/>
<path d="M67.5605 91.2928C61.5089 93.4762 55.0109 93.4762 50.2986 93.4762C45.5863 93.4762 39.0882 93.4762 33.0366 91.2928C34.6735 84.7924 39.1875 83.1549 43.2549 83.1549C46.9752 83.1549 49.2569 84.1473 50.2986 84.6932C51.2906 84.1473 53.622 83.1549 57.3422 83.1549C61.4097 83.1053 65.9236 84.7427 67.5605 91.2928Z" fill="url(#paint1_linear_1616_2287)"/>
<path d="M59.2261 34.5755C59.2261 38.4956 62.4007 41.6714 66.3194 41.6714C70.238 41.6714 73.4126 38.4956 73.4126 34.5755C73.4126 30.6553 70.238 27.4795 66.3194 27.4795C62.4503 27.4795 59.2261 30.6553 59.2261 34.5755Z" fill="#211206"/>
<path d="M27.1323 34.5755C27.1323 38.4956 30.307 41.6714 34.2256 41.6714C38.1443 41.6714 41.3189 38.4956 41.3189 34.5755C41.3189 30.6553 38.1443 27.4795 34.2256 27.4795C30.307 27.4795 27.1323 30.6553 27.1323 34.5755Z" fill="#211206"/>
<path d="M96.8257 29.0179H88.9388C86.409 21.7731 79.4645 16.5132 71.3792 16.5132C63.2443 16.5132 56.3495 21.7235 53.8197 29.0179H46.8256C44.2958 21.7731 37.3514 16.5132 29.2661 16.5132C21.1312 16.5132 14.2363 21.7235 11.7065 29.0179H3.81964C2.97638 29.0179 2.33154 29.663 2.33154 30.5066C2.33154 31.3501 2.97638 31.9952 3.81964 31.9952H10.9625C10.764 33.0373 10.6649 34.0794 10.6649 35.171C10.6649 45.4428 18.9982 53.7793 29.2661 53.7793C39.534 53.7793 47.8673 45.4428 47.8673 35.171C47.8673 34.0794 47.7681 33.0373 47.5697 31.9952H53.026C52.8276 33.0373 52.7285 34.0794 52.7285 35.171C52.7285 45.4428 61.0618 53.7793 71.3297 53.7793C81.5975 53.7793 89.9309 45.4428 89.9309 35.171C89.9309 34.0794 89.8316 33.0373 89.6332 31.9952H96.7265C97.5697 31.9952 98.2146 31.3501 98.2146 30.5066C98.3138 29.7126 97.6689 29.0179 96.8257 29.0179ZM29.2661 50.8516C20.6352 50.8516 13.6411 43.8549 13.6411 35.2206C13.6411 26.5864 20.6352 19.5897 29.2661 19.5897C37.8971 19.5897 44.8911 26.5864 44.8911 35.2206C44.8911 43.8052 37.8475 50.8516 29.2661 50.8516ZM71.3792 50.8516C62.7482 50.8516 55.7542 43.8549 55.7542 35.2206C55.7542 26.5864 62.7482 19.5897 71.3792 19.5897C80.0102 19.5897 87.0042 26.5864 87.0042 35.2206C87.0042 43.8052 80.0102 50.8516 71.3792 50.8516Z" fill="#211206"/>
<defs>
<radialGradient id="paint0_radial_1616_2287" cx="0" cy="0" r="1" gradientUnits="userSpaceOnUse" gradientTransform="translate(59.143 38.7546) scale(65.5114 65.5362)">
<stop stop-color="#FFEF99"/>
<stop offset="0.5211" stop-color="#FFD71B"/>
<stop offset="1" stop-color="#E69900"/>
</radialGradient>
<linearGradient id="paint1_linear_1616_2287" x1="68.0983" y1="80.4917" x2="37.0129" y2="94.8383" gradientUnits="userSpaceOnUse">
<stop stop-color="#D22222"/>
<stop offset="1" stop-color="#820505"/>
</linearGradient>
</defs>
</svg>
