<svg width="100" height="111" viewBox="0 0 100 111" fill="none" xmlns="http://www.w3.org/2000/svg">
<path d="M50 110.386C77.6142 110.386 100 87.9917 100 60.3671C100 32.7424 77.6142 10.3481 50 10.3481C22.3858 10.3481 0 32.7424 0 60.3671C0 87.9917 22.3858 110.386 50 110.386Z" fill="url(#paint0_radial_1616_1837)"/>
<path d="M84.1267 24.8377C82.9858 23.5972 81.7457 22.4559 80.5056 21.3642C84.9203 19.2801 87.9957 16.3524 87.9957 15.1614C87.9957 13.9705 85.8627 11.0924 77.8766 8.5617C70.5354 6.22947 60.7635 4.93928 50.3469 4.93928C39.9302 4.93928 30.1088 6.22947 22.8171 8.5617C14.831 11.0924 12.6981 14.0201 12.6981 15.1614C12.6981 16.3524 15.7735 19.3297 20.2378 21.3642C18.9977 22.4559 17.7576 23.6468 16.6167 24.8377C11.9044 22.2078 8.58105 18.238 8.58105 15.1614C8.58105 10.4474 12.9957 6.67606 21.7259 3.89723C29.4144 1.46576 39.583 0.125977 50.3469 0.125977C61.1108 0.125977 71.2794 1.46576 78.9679 3.89723C87.698 6.67606 92.1127 10.497 92.1127 15.1614C92.1623 18.238 88.839 22.2078 84.1267 24.8377Z" fill="url(#paint1_linear_1616_1837)"/>
<path d="M50.3973 57.9854C36.0124 57.9854 16.2207 58.8786 16.2207 58.8786C16.2207 90.9343 38.691 90.9343 50.3973 90.9343C62.1037 90.9343 84.5739 90.9343 84.5739 58.8786C84.5739 58.8786 64.7327 57.9854 50.3973 57.9854Z" fill="#211206"/>
<path d="M80.8037 58.7298C80.5557 63.1461 77.2323 66.8182 72.8176 67.5129C67.6093 68.3068 60.02 69.1008 50.397 69.1008C40.8236 69.1008 33.1847 68.3068 27.9764 67.5129C23.5617 66.8182 20.2383 63.1461 19.9902 58.7298C26.4386 58.4817 39.8811 58.0351 50.397 58.0351C60.9129 57.9854 74.3553 58.432 80.8037 58.7298Z" fill="white"/>
<path d="M79.712 79.422C72.4699 90.9343 58.6803 90.9342 50.3966 90.9342C42.0632 90.9342 28.3231 90.9343 21.0811 79.422C21.9739 76.0973 24.9501 73.765 28.3727 73.6162C28.5215 73.6162 28.7199 73.6162 28.8687 73.6162C33.2834 73.4177 40.2279 73.2192 50.3966 73.2192C60.962 73.2192 68.0552 73.4177 72.4203 73.6162C75.8429 73.7154 78.8191 76.0973 79.712 79.422Z" fill="white"/>
<path d="M19.5432 32.0832C18.9976 32.0832 18.4519 32.2817 18.0055 32.6291C16.9638 33.4726 16.815 35.0109 17.7078 36.053C21.9241 41.1144 27.0333 43.794 32.3904 43.794C37.7475 43.794 42.8567 41.1144 47.073 36.053C47.9162 35.0109 47.817 33.4726 46.7753 32.6291C45.7337 31.7855 44.196 31.8847 43.3528 32.9268C41.071 35.656 37.3011 38.931 32.3904 38.931C27.4797 38.931 23.7098 35.656 21.4281 32.9268C20.932 32.381 20.2377 32.0832 19.5432 32.0832Z" fill="#211206"/>
<path d="M81.201 32.0825C80.5065 32.0825 79.8122 32.3802 79.3161 32.9757C77.0344 35.7049 73.2645 38.98 68.3538 38.98C63.4431 38.98 59.6732 35.7049 57.3914 32.9757C56.5482 31.9336 55.0105 31.7848 53.9689 32.678C52.9272 33.5215 52.7784 35.0598 53.6712 36.1019C57.8875 41.1633 62.9966 43.8429 68.3538 43.8429C73.7109 43.8429 78.8201 41.1633 83.0364 36.1019C83.8796 35.0598 83.7804 33.5215 82.7387 32.678C82.2923 32.281 81.7466 32.0825 81.201 32.0825Z" fill="#211206"/>
<defs>
<radialGradient id="paint0_radial_1616_1837" cx="0" cy="0" r="1" gradientUnits="userSpaceOnUse" gradientTransform="translate(59.1116 48.1715) scale(65.5114 65.5361)">
<stop stop-color="#FFEF99"/>
<stop offset="0.5211" stop-color="#FFD71B"/>
<stop offset="1" stop-color="#E69900"/>
</radialGradient>
<linearGradient id="paint1_linear_1616_1837" x1="93.4144" y1="-6.24705" x2="18.4843" y2="28.7042" gradientUnits="userSpaceOnUse">
<stop stop-color="#D22222"/>
<stop offset="1" stop-color="#820505"/>
</linearGradient>
</defs>
</svg>
