<svg width="100" height="107" viewBox="0 0 100 107" fill="none" xmlns="http://www.w3.org/2000/svg">
<path d="M50 106.098C77.6142 106.098 100 83.7037 100 56.079C100 28.4543 77.6142 6.06006 50 6.06006C22.3858 6.06006 0 28.4543 0 56.079C0 83.7037 22.3858 106.098 50 106.098Z" fill="url(#paint0_radial_1616_1105)"/>
<path d="M83.55 43.7671C86.8525 35.7914 83.0665 26.6475 75.0938 23.3438C67.121 20.0401 57.9807 23.8275 54.6782 31.8032C51.3757 39.779 55.1617 48.9228 63.1344 52.2266C71.1072 55.5303 80.2475 51.7429 83.55 43.7671Z" fill="white"/>
<path d="M75.6704 36.7986C77.0756 32.1559 74.4526 27.2528 69.8117 25.847C65.1708 24.4413 60.2694 27.0653 58.8642 31.7079C57.459 36.3506 60.082 41.2538 64.7229 42.6596C69.3638 44.0653 74.2652 41.4413 75.6704 36.7986Z" fill="#211206"/>
<path d="M36.6621 52.2583C44.6349 48.9545 48.4209 39.8107 45.1184 31.8349C41.8159 23.8592 32.6755 20.0717 24.7028 23.3755C16.73 26.6792 12.944 35.8231 16.2465 43.7988C19.549 51.7746 28.6894 55.562 36.6621 52.2583Z" fill="white"/>
<path d="M35.0443 42.6412C39.6852 41.2355 42.3083 36.3323 40.9031 31.6896C39.4979 27.047 34.5965 24.4229 29.9556 25.8287C25.3147 27.2344 22.6916 32.1377 24.0969 36.7803C25.5021 41.423 30.4034 44.047 35.0443 42.6412Z" fill="#211206"/>
<path d="M87.8471 13.8512C86.9542 13.8512 86.111 13.355 85.6645 12.5114C84.3749 9.9311 82.3411 7.847 79.7617 6.45759C77.1824 5.1178 74.3054 4.62157 71.4284 5.01854C70.0891 5.21703 68.849 4.27421 68.7002 2.93441C68.5018 1.59462 69.4443 0.354075 70.7836 0.205209C74.6526 -0.340632 78.5713 0.304465 82.0435 2.14048C85.5157 3.97649 88.2935 6.80494 90.0296 10.3281C90.6248 11.519 90.1288 13.0077 88.9383 13.6031C88.5911 13.752 88.2439 13.8512 87.8471 13.8512Z" fill="url(#paint1_linear_1616_1105)"/>
<path d="M11.9049 13.8512C11.5577 13.8512 11.1609 13.752 10.8137 13.6031C9.62321 13.0077 9.1272 11.5686 9.72244 10.3281C11.4586 6.80494 14.2363 3.97649 17.7085 2.14048C21.1808 0.304465 25.0994 -0.340632 28.9684 0.205209C30.3077 0.403697 31.2006 1.64425 31.0518 2.93441C30.8534 4.27421 29.6133 5.16741 28.3236 5.01854C25.4466 4.62157 22.5696 5.1178 19.9903 6.45759C17.4109 7.79738 15.3772 9.88148 14.0875 12.5114C13.6411 13.355 12.7482 13.8512 11.9049 13.8512Z" fill="url(#paint2_linear_1616_1105)"/>
<path d="M49.8511 81.0889C39.0872 81.0889 29.3154 77.0695 24.9504 70.8668C24.1567 69.7751 24.4543 68.2368 25.5456 67.4925C26.6368 66.6986 28.1746 66.9963 28.9186 68.088C32.3412 72.9509 40.7241 76.226 49.8511 76.226C58.9285 76.226 67.3611 72.9509 70.7837 68.088C71.5773 66.9963 73.0654 66.7482 74.1567 67.4925C75.2479 68.2865 75.496 69.7751 74.7519 70.8668C70.3869 77.0695 60.615 81.0889 49.8511 81.0889Z" fill="#211206"/>
<defs>
<radialGradient id="paint0_radial_1616_1105" cx="0" cy="0" r="1" gradientUnits="userSpaceOnUse" gradientTransform="translate(59.1172 43.9132) scale(65.5114 65.5361)">
<stop stop-color="#FFEF99"/>
<stop offset="0.5211" stop-color="#FFD71B"/>
<stop offset="1" stop-color="#E69900"/>
</radialGradient>
<linearGradient id="paint1_linear_1616_1105" x1="90.6184" y1="-3.55005" x2="68.0661" y2="1.31093" gradientUnits="userSpaceOnUse">
<stop stop-color="#D22222"/>
<stop offset="1" stop-color="#820505"/>
</linearGradient>
<linearGradient id="paint2_linear_1616_1105" x1="31.4044" y1="-3.55005" x2="8.86182" y2="1.30653" gradientUnits="userSpaceOnUse">
<stop stop-color="#D22222"/>
<stop offset="1" stop-color="#820505"/>
</linearGradient>
</defs>
</svg>
