<svg width="100" height="105" viewBox="0 0 100 105" fill="none" xmlns="http://www.w3.org/2000/svg">
<path d="M49.9895 104.377C77.598 104.377 99.9791 81.9872 99.9791 54.3683C99.9791 26.7494 77.598 4.35986 49.9895 4.35986C22.3811 4.35986 0 26.7494 0 54.3683C0 81.9872 22.3811 104.377 49.9895 104.377Z" fill="url(#paint0_radial_1616_1982)"/>
<path d="M70.2733 11.5538L57.3792 10.0159C55.8914 9.81744 54.85 11.4546 55.5939 12.7445L62.1897 23.9071C62.4872 24.4032 62.5369 25.0482 62.289 25.5939L56.8338 37.3518C56.189 38.6913 57.4288 40.1797 58.867 39.882L71.5131 37.0542C72.1082 36.9053 72.7034 37.1038 73.1497 37.5007L82.6715 46.3315C83.7625 47.3238 85.5479 46.6788 85.6967 45.1905L86.8869 32.2915C86.9365 31.6961 87.2837 31.2 87.7796 30.9023L99.0868 24.5521C100.376 23.8079 100.277 21.9226 98.938 21.3273L87.0357 16.1677C86.4902 15.9197 86.0934 15.4235 85.9942 14.8778L83.465 2.12764C83.1675 0.639292 81.3325 0.143201 80.3407 1.28427L71.7611 11.0081C71.4635 11.405 70.8684 11.6034 70.2733 11.5538Z" fill="url(#paint1_linear_1616_1982)"/>
<path d="M30.3509 11.5538L43.245 10.0159C44.7327 9.81744 45.7742 11.4546 45.0304 12.7445L38.4345 23.9071C38.1369 24.4032 38.0874 25.0482 38.3353 25.5939L43.7905 37.3518C44.4352 38.6913 43.1954 40.1797 41.7572 39.882L29.111 37.0542C28.5159 36.9053 27.9208 37.1038 27.4744 37.5007L17.9527 46.3315C16.8616 47.3238 15.0764 46.6788 14.9276 45.1905L13.7373 32.2915C13.6877 31.6961 13.3405 31.2 12.8446 30.9023L1.53753 24.5521C0.248115 23.8079 0.347203 21.9226 1.68621 21.3273L13.5885 16.1677C14.134 15.9197 14.5308 15.4235 14.63 14.8778L17.1592 2.12764C17.4568 0.639292 19.2916 0.143201 20.2835 1.28427L28.8631 11.0081C29.1606 11.405 29.7557 11.6034 30.3509 11.5538Z" fill="url(#paint2_linear_1616_1982)"/>
<path d="M50.5346 53.2275C36.3511 53.2275 16.8115 54.0709 16.8115 54.0709C16.8115 85.6735 38.9795 85.6735 50.5346 85.6735C62.0897 85.6735 84.2577 85.6735 84.2577 54.0709C84.2577 54.0709 64.7181 53.2275 50.5346 53.2275Z" fill="#211206"/>
<path d="M80.29 53.9221C80.042 58.2879 76.7689 61.9096 72.4048 62.6041C67.2471 63.3979 59.7586 64.1917 50.2863 64.1917C40.8141 64.1917 33.3257 63.3979 28.168 62.6041C23.8039 61.9096 20.5307 58.2879 20.2827 53.9221C26.6306 53.6741 39.9214 53.2275 50.2863 53.2275C60.7008 53.2275 73.9421 53.6741 80.29 53.9221Z" fill="white"/>
<path d="M67.5453 83.5402C61.495 85.7231 54.9983 85.7231 50.287 85.7231C45.5757 85.7231 39.0791 85.7231 33.0288 83.5402C34.6654 77.0411 39.1782 75.4039 43.2448 75.4039C46.9643 75.4039 49.2455 76.3962 50.287 76.9419C51.2789 76.3962 53.6098 75.4039 57.3293 75.4039C61.4455 75.3543 65.9087 76.9915 67.5453 83.5402Z" fill="url(#paint3_linear_1616_1982)"/>
<defs>
<radialGradient id="paint0_radial_1616_1982" cx="0" cy="0" r="1" gradientUnits="userSpaceOnUse" gradientTransform="translate(59.1146 42.2051) scale(65.4976 65.5224)">
<stop stop-color="#FFEF99"/>
<stop offset="0.5211" stop-color="#FFD71B"/>
<stop offset="1" stop-color="#E69900"/>
</radialGradient>
<linearGradient id="paint1_linear_1616_1982" x1="100.696" y1="-11.2447" x2="52.7808" y2="-4.84734" gradientUnits="userSpaceOnUse">
<stop stop-color="#D22222"/>
<stop offset="1" stop-color="#820505"/>
</linearGradient>
<linearGradient id="paint2_linear_1616_1982" x1="45.9721" y1="-11.2447" x2="-1.94287" y2="-4.84733" gradientUnits="userSpaceOnUse">
<stop stop-color="#D22222"/>
<stop offset="1" stop-color="#820505"/>
</linearGradient>
<linearGradient id="paint3_linear_1616_1982" x1="68.0829" y1="72.7413" x2="37.0042" y2="87.0848" gradientUnits="userSpaceOnUse">
<stop stop-color="#D22222"/>
<stop offset="1" stop-color="#820505"/>
</linearGradient>
</defs>
</svg>
