<svg width="100" height="106" viewBox="0 0 100 106" fill="none" xmlns="http://www.w3.org/2000/svg">
<path d="M47.8215 105.155C74.2326 105.155 95.6431 83.7368 95.6431 57.3157C95.6431 30.8946 74.2326 9.47607 47.8215 9.47607C21.4104 9.47607 0 30.8946 0 57.3157C0 83.7368 21.4104 105.155 47.8215 105.155Z" fill="url(#paint0_radial_1669_246)"/>
<path d="M42.9826 48.6787C42.3184 48.6787 41.6542 48.9635 41.1798 49.533C39.1398 51.9534 35.8663 54.8485 31.5017 54.8485C27.137 54.8485 23.816 51.9534 21.8234 49.533C21.0169 48.5363 19.5463 48.394 18.55 49.2482C17.5537 50.0551 17.4113 51.5263 18.2653 52.523C22.0607 57.0791 26.6626 59.4996 31.5017 59.4996C36.3882 59.4996 40.9426 57.0791 44.7379 52.523C45.5444 51.5263 45.4495 50.0551 44.4532 49.2482C44.0263 48.8211 43.5045 48.6787 42.9826 48.6787Z" fill="#211206"/>
<path d="M77.4254 48.6787C76.7612 48.6787 76.0971 48.9635 75.6227 49.533C73.5827 51.9534 70.3091 54.8485 65.9445 54.8485C61.5798 54.8485 58.2589 51.9534 56.2664 49.533C55.4598 48.5363 53.9891 48.394 52.9928 49.2482C51.9965 50.0551 51.8543 51.5263 52.7082 52.523C56.5036 57.0791 61.1054 59.4996 65.9445 59.4996C70.831 59.4996 75.3855 57.0791 79.1809 52.523C79.9874 51.5263 79.8924 50.0551 78.8962 49.2482C78.4692 48.8211 77.9473 48.6787 77.4254 48.6787Z" fill="#211206"/>
<path d="M58.8996 80.5561C60.2544 74.8165 56.7016 69.0651 50.9643 67.7098C45.2269 66.3546 39.4777 69.9087 38.1229 75.6482C36.7682 81.3877 40.321 87.1392 46.0583 88.4944C51.7956 89.8497 57.5449 86.2956 58.8996 80.5561Z" fill="#211206"/>
<path d="M47.7272 40.2775C47.49 40.2775 47.2528 40.2775 47.0156 40.2301L37.5745 38.1418C36.768 37.952 36.1039 37.335 35.8667 36.5282C35.6295 35.7214 35.8667 34.8197 36.436 34.2501L45.2602 25.3277L40.0416 24.1412C38.8081 23.8564 38.0015 22.6225 38.2862 21.3885C38.5708 20.1545 39.8043 19.3477 41.0378 19.6325L50.3365 21.7207C51.143 21.9106 51.8071 22.5275 52.0443 23.3344C52.2816 24.1412 52.0444 25.0429 51.4751 25.6124L42.6509 34.5349L48.0118 35.7214C49.2453 36.0062 50.0519 37.2401 49.7672 38.4741C49.5775 39.4707 48.7235 40.1826 47.7272 40.2775Z" fill="url(#paint1_linear_1669_246)"/>
<path d="M73.3458 35.0099H60.916C60.0621 35.0099 59.303 34.5353 58.876 33.8234C58.449 33.064 58.4964 32.1623 58.9234 31.4504L68.0797 16.8327H60.062C58.7811 16.8327 57.7373 15.7886 57.7373 14.5072C57.7373 13.2258 58.7811 12.1816 60.062 12.1816H72.3021C73.156 12.1816 73.915 12.6562 74.342 13.3681C74.769 14.1275 74.7216 15.0292 74.2946 15.7411L65.1383 30.3588H73.3458C74.6267 30.3588 75.6704 31.4029 75.6704 32.6843C75.6704 33.9657 74.6267 35.0099 73.3458 35.0099Z" fill="url(#paint2_linear_1669_246)"/>
<path d="M83.7356 28.3654C83.024 28.3654 82.3598 28.0332 81.9328 27.5111C81.4109 26.8467 81.2686 25.945 81.6007 25.1856L89.1441 6.344L79.5607 8.05256C78.2798 8.28986 77.0937 7.43558 76.8565 6.20162C76.6193 4.9202 77.4733 3.73371 78.7068 3.49641L92.4175 1.02849C93.2715 0.886114 94.078 1.17087 94.6473 1.83531C95.1691 2.49975 95.3114 3.40149 94.9793 4.16085L87.4361 23.0024L97.2566 21.2464C98.5375 21.0091 99.7235 21.8634 99.9608 23.0974C100.198 24.3788 99.3441 25.5653 98.1106 25.8026L84.1627 28.3179C84.0203 28.3179 83.8779 28.3654 83.7356 28.3654Z" fill="url(#paint3_linear_1669_246)"/>
<defs>
<radialGradient id="paint0_radial_1669_246" cx="0" cy="0" r="1" gradientUnits="userSpaceOnUse" gradientTransform="translate(56.5361 45.6527) scale(62.6571 62.6807)">
<stop stop-color="#FFEF99"/>
<stop offset="0.5211" stop-color="#FFD71B"/>
<stop offset="1" stop-color="#E69900"/>
</radialGradient>
<linearGradient id="paint1_linear_1669_246" x1="52.3905" y1="14.2362" x2="34.732" y2="16.1618" gradientUnits="userSpaceOnUse">
<stop stop-color="#D22222"/>
<stop offset="1" stop-color="#820505"/>
</linearGradient>
<linearGradient id="paint2_linear_1669_246" x1="75.9497" y1="6.29437" x2="56.5909" y2="8.39291" gradientUnits="userSpaceOnUse">
<stop stop-color="#D22222"/>
<stop offset="1" stop-color="#820505"/>
</linearGradient>
<linearGradient id="paint3_linear_1669_246" x1="100.362" y1="-6.0666" x2="75.3819" y2="-3.14715" gradientUnits="userSpaceOnUse">
<stop stop-color="#D22222"/>
<stop offset="1" stop-color="#820505"/>
</linearGradient>
</defs>
</svg>
